# 3ds Max Wavefront OBJ Exporter v0.97b - (c)2007 guruware
# File Created: 24.10.2019 07:51:48

mtllib barrel.mtl

#
# object barrel_barrel_Barrel
#

v  -0.1401 0.0010 -0.6380
v  0.0312 0.0343 -0.6858
v  0.0297 0.0010 -0.6524
v  -0.3003 2.0814 -0.5801
v  -0.4627 2.0480 -0.5076
v  -0.4401 2.0812 -0.4828
v  -0.3157 2.0482 -0.6099
v  -0.1401 2.0815 -0.6380
v  -0.1472 2.0483 -0.6708
v  0.0297 2.0816 -0.6524
v  0.0312 2.0484 -0.6859
v  -0.1473 0.0342 -0.6706
v  -0.3003 0.0009 -0.5801
v  -0.3157 0.0341 -0.6098
v  -0.4402 0.0007 -0.4827
v  -0.4627 0.0339 -0.5074
v  -0.5500 0.0005 -0.3525
v  -0.5782 0.0337 -0.3705
v  -0.6224 0.0002 -0.1983
v  -0.6543 0.0334 -0.2084
v  -0.6524 -0.0001 -0.0306
v  -0.5075 0.0324 0.4619
v  -0.3705 2.0464 0.5772
v  -0.5075 2.0465 0.4618
v  -0.6099 0.0326 0.3149
v  -0.6098 2.0467 0.3148
v  -0.6707 0.0329 0.1464
v  -0.6707 2.0470 0.1463
v  -0.6859 0.0331 -0.0321
v  -0.6858 2.0473 -0.0322
v  -0.6543 2.0475 -0.2085
v  -0.5782 2.0478 -0.3706
v  -0.1983 2.0795 0.6215
v  -0.0321 2.0462 0.6849
v  -0.0306 2.0795 0.6515
v  -0.2084 2.0463 0.6533
v  -0.3525 2.0796 0.5491
v  -0.4827 2.0798 0.4392
v  -0.5801 2.0800 0.2994
v  -0.6380 2.0802 0.1392
v  -0.6524 2.0805 -0.0306
v  -0.6224 2.0807 -0.1983
v  -0.5500 2.0810 -0.3525
v  -0.6380 -0.0003 0.1392
v  -0.5801 -0.0006 0.2994
v  -0.4827 -0.0008 0.4392
v  -0.3525 -0.0009 0.5491
v  -0.3706 0.0322 0.5773
v  -0.1983 -0.0010 0.6215
v  -0.2084 0.0321 0.6535
v  -0.0306 -0.0010 0.6515
v  -0.0321 0.0321 0.6850
v  0.1392 -0.0010 0.6371
v  0.2995 2.0797 0.5792
v  0.4618 2.0466 0.5065
v  0.4393 2.0799 0.4818
v  0.3149 2.0464 0.6089
v  0.1392 2.0796 0.6371
v  0.1464 2.0463 0.6697
v  0.1464 0.0322 0.6698
v  0.2994 -0.0009 0.5792
v  0.3148 0.0323 0.6090
v  0.4392 -0.0007 0.4818
v  0.4618 0.0325 0.5066
v  0.5491 -0.0005 0.3516
v  0.5773 0.0327 0.3697
v  0.6215 -0.0002 0.1974
v  0.6534 0.0330 0.2076
v  0.6515 0.0001 0.0297
v  0.5066 0.0340 -0.4627
v  0.3697 2.0483 -0.5783
v  0.5066 2.0481 -0.4628
v  0.6089 0.0338 -0.3157
v  0.6090 2.0479 -0.3158
v  0.6698 0.0336 -0.1472
v  0.6698 2.0477 -0.1473
v  0.6849 0.0333 0.0313
v  0.6850 2.0474 0.0312
v  0.6534 2.0471 0.2075
v  0.5773 2.0468 0.3696
v  0.1974 2.0815 -0.6224
v  0.2076 2.0484 -0.6544
v  0.3516 2.0815 -0.5500
v  0.4819 2.0813 -0.4402
v  0.5792 2.0811 -0.3004
v  0.6371 2.0809 -0.1401
v  0.6515 2.0806 0.0297
v  0.6215 2.0803 0.1974
v  0.5491 2.0801 0.3516
v  0.6371 0.0003 -0.1401
v  0.5792 0.0006 -0.3003
v  0.4818 0.0008 -0.4402
v  0.3516 0.0009 -0.5500
v  0.3697 0.0342 -0.5781
v  0.1974 0.0010 -0.6224
v  0.2075 0.0343 -0.6542
v  -0.0004 0.0000 -0.0004
v  -0.0004 2.0805 -0.0005
# 98 vertices

vn -0.0869 -0.9128 -0.3991
vn 0.0429 -0.3731 -0.9268
vn 0.0190 -0.9127 -0.4082
vn -0.1873 0.9139 -0.3602
vn -0.6251 0.3742 -0.6850
vn -0.2745 0.9138 -0.2994
vn -0.4263 0.3743 -0.8235
vn -0.0873 0.9139 -0.3963
vn -0.1986 0.3744 -0.9058
vn 0.0186 0.9140 -0.4053
vn 0.0428 0.3744 -0.9263
vn -0.1983 -0.3731 -0.9063
vn -0.1870 -0.9128 -0.3631
vn -0.4261 -0.3731 -0.8242
vn -0.2742 -0.9129 -0.3023
vn -0.6247 -0.3733 -0.6858
vn -0.3427 -0.9131 -0.2211
vn -0.7809 -0.3734 -0.5008
vn -0.3878 -0.9132 -0.1248
vn -0.8838 -0.3736 -0.2817
vn -0.4065 -0.9134 -0.0202
vn -0.6855 -0.3743 0.6245
vn -0.5003 0.3731 0.7814
vn -0.6853 0.3732 0.6253
vn -0.8239 -0.3741 0.4257
vn -0.8238 0.3733 0.4266
vn -0.9061 -0.3740 0.1980
vn -0.9060 0.3735 0.1990
vn -0.9265 -0.3738 -0.0433
vn -0.9266 0.3737 -0.0423
vn -0.8840 0.3739 -0.2807
vn -0.7812 0.3741 -0.4999
vn -0.1236 0.9127 0.3895
vn -0.0429 0.3730 0.9268
vn -0.0190 0.9127 0.4082
vn -0.2811 0.3731 0.8842
vn -0.2198 0.9128 0.3443
vn -0.3010 0.9129 0.2757
vn -0.3618 0.9130 0.1885
vn -0.3979 0.9132 0.0885
vn -0.4069 0.9133 -0.0174
vn -0.3882 0.9135 -0.1220
vn -0.3430 0.9136 -0.2182
vn -0.3976 -0.9136 0.0857
vn -0.3615 -0.9137 0.1857
vn -0.3007 -0.9138 0.2729
vn -0.2195 -0.9139 0.3415
vn -0.5004 -0.3743 0.7807
vn -0.1233 -0.9140 0.3866
vn -0.2812 -0.3745 0.8836
vn -0.0186 -0.9140 0.4053
vn -0.0427 -0.3745 0.9263
vn 0.0873 -0.9139 0.3963
vn 0.1869 0.9128 0.3631
vn 0.6247 0.3733 0.6858
vn 0.2741 0.9129 0.3023
vn 0.4261 0.3731 0.8242
vn 0.0870 0.9127 0.3992
vn 0.1983 0.3731 0.9063
vn 0.1986 -0.3744 0.9058
vn 0.1873 -0.9139 0.3602
vn 0.4263 -0.3743 0.8235
vn 0.2745 -0.9138 0.2994
vn 0.6250 -0.3742 0.6850
vn 0.3430 -0.9136 0.2182
vn 0.7812 -0.3741 0.4999
vn 0.3882 -0.9135 0.1220
vn 0.8840 -0.3738 0.2807
vn 0.4069 -0.9133 0.0174
vn 0.6854 -0.3733 -0.6253
vn 0.5004 0.3744 -0.7807
vn 0.6855 0.3743 -0.6245
vn 0.8238 -0.3734 -0.4266
vn 0.8239 0.3741 -0.4257
vn 0.9060 -0.3735 -0.1990
vn 0.9061 0.3740 -0.1980
vn 0.9266 -0.3737 0.0423
vn 0.9265 0.3738 0.0433
vn 0.8838 0.3736 0.2817
vn 0.7809 0.3734 0.5008
vn 0.1233 0.9140 -0.3866
vn 0.2812 0.3744 -0.8836
vn 0.2195 0.9139 -0.3414
vn 0.3007 0.9139 -0.2729
vn 0.3615 0.9137 -0.1857
vn 0.3976 0.9136 -0.0857
vn 0.4065 0.9134 0.0202
vn 0.3879 0.9132 0.1249
vn 0.3427 0.9131 0.2211
vn 0.3979 -0.9131 -0.0886
vn 0.3618 -0.9130 -0.1885
vn 0.3010 -0.9129 -0.2757
vn 0.2198 -0.9128 -0.3443
vn 0.5003 -0.3731 -0.7813
vn 0.1236 -0.9127 -0.3894
vn 0.2811 -0.3731 -0.8842
vn 0.0002 -1.0000 -0.0016
vn -0.0002 1.0000 0.0016
# 98 vertex normals

vt 0.1088 -1.9956 0.0000
vt 0.0239 -1.9848 0.0000
vt 0.0297 -1.9956 0.0000
vt 0.1834 -1.5052 0.0000
vt 0.2645 -1.5168 0.0000
vt 0.2637 -1.5052 0.0000
vt 0.1834 -1.5168 0.0000
vt 0.1034 -1.5052 0.0000
vt 0.1018 -1.5168 0.0000
vt 0.0253 -1.5050 0.0000
vt 0.0227 -1.5168 0.0000
vt 0.1075 -1.9848 0.0000
vt 0.1882 -1.9956 0.0000
vt 0.1875 -1.9848 0.0000
vt 0.2677 -1.9956 0.0000
vt 0.2671 -1.9848 0.0000
vt 0.3476 -1.9956 0.0000
vt 0.3475 -1.9848 0.0000
vt 0.4279 -1.9956 0.0000
vt 0.4282 -1.9848 0.0000
vt 0.5079 -1.9956 0.0000
vt 0.7436 -1.9847 0.0000
vt 0.8328 -1.5168 0.0000
vt 0.7504 -1.5168 0.0000
vt 0.6658 -1.9847 0.0000
vt 0.6679 -1.5168 0.0000
vt 0.5875 -1.9847 0.0000
vt 0.5859 -1.5168 0.0000
vt 0.5083 -1.9848 0.0000
vt 0.5047 -1.5168 0.0000
vt 0.4244 -1.5168 0.0000
vt 0.3446 -1.5168 0.0000
vt 0.9127 -1.5051 0.0000
vt 0.9974 -1.5168 0.0000
vt 0.9920 -1.5050 0.0000
vt 0.9152 -1.5168 0.0000
vt 0.8317 -1.5051 0.0000
vt 0.7501 -1.5050 0.0000
vt 0.6681 -1.5050 0.0000
vt 0.5861 -1.5050 0.0000
vt 0.5048 -1.5050 0.0000
vt 0.4241 -1.5051 0.0000
vt 0.3439 -1.5051 0.0000
vt 0.5872 -1.9956 0.0000
vt 0.6658 -1.9956 0.0000
vt 0.7440 -1.9956 0.0000
vt 0.8222 -1.9956 0.0000
vt 0.8218 -1.9847 0.0000
vt 0.9005 -1.9956 0.0000
vt 0.9009 -1.9847 0.0000
vt 0.9784 -1.9956 0.0000
vt 0.9814 -1.9848 0.0000
vt 0.4994 -1.2519 0.0000
vt 0.0228 -1.3155 0.0000
vt 0.0721 -1.3748 0.0000
vt 0.0059 -1.2519 0.0000
vt 0.0228 -1.1883 0.0000
vt 0.0721 -1.1290 0.0000
vt 0.1505 -1.0781 0.0000
vt 0.2527 -1.0391 0.0000
vt 0.3717 -1.0145 0.0000
vt 0.4994 -1.0062 0.0000
vt 0.6272 -1.0145 0.0000
vt 0.7462 -1.0391 0.0000
vt 0.8484 -1.0781 0.0000
vt 0.9268 -1.1290 0.0000
vt 0.9761 -1.1883 0.0000
vt 0.9930 -1.2519 0.0000
vt 0.9761 -1.3155 0.0000
vt 0.9268 -1.3748 0.0000
vt 0.8484 -1.4257 0.0000
vt 0.7462 -1.4648 0.0000
vt 0.6272 -1.4893 0.0000
vt 0.4994 -1.4977 0.0000
vt 0.3717 -1.4893 0.0000
vt 0.2527 -1.4648 0.0000
vt 0.1505 -1.4257 0.0000
# 77 texture coords

g barrel_barrel_Barrel
usemtl _Barrel_ExplosiveBarrel
s off
f 1/1/1 2/2/2 3/3/3 
f 4/4/4 5/5/5 6/6/6 
f 5/5/5 4/4/4 7/7/7 
f 8/8/8 7/7/7 4/4/4 
f 7/7/7 8/8/8 9/9/9 
f 10/10/10 9/9/9 8/8/8 
f 9/9/9 10/10/10 11/11/11 
f 2/2/2 9/9/9 11/11/11 
f 9/9/9 2/2/2 12/12/12 
f 2/2/2 1/1/1 12/12/12 
f 12/12/12 1/1/1 13/13/13 
f 12/12/12 13/13/13 14/14/14 
f 15/15/15 14/14/14 13/13/13 
f 14/14/14 15/15/15 16/16/16 
f 17/17/17 16/16/16 15/15/15 
f 16/16/16 17/17/17 18/18/18 
f 19/19/19 18/18/18 17/17/17 
f 18/18/18 19/19/19 20/20/20 
f 21/21/21 20/20/20 19/19/19 
f 22/22/22 23/23/23 24/24/24 
f 24/24/24 25/25/25 22/22/22 
f 25/25/25 24/24/24 26/26/26 
f 26/26/26 27/27/27 25/25/25 
f 27/27/27 26/26/26 28/28/28 
f 28/28/28 29/29/29 27/27/27 
f 29/29/29 28/28/28 30/30/30 
f 30/30/30 20/20/20 29/29/29 
f 20/20/20 30/30/30 31/31/31 
f 31/31/31 18/18/18 20/20/20 
f 18/18/18 31/31/31 32/32/32 
f 32/32/32 16/16/16 18/18/18 
f 16/16/16 32/32/32 5/5/5 
f 5/5/5 14/14/14 16/16/16 
f 14/14/14 5/5/5 7/7/7 
f 7/7/7 12/12/12 14/14/14 
f 12/12/12 7/7/7 9/9/9 
f 33/33/33 34/34/34 35/35/35 
f 34/34/34 33/33/33 36/36/36 
f 37/37/37 36/36/36 33/33/33 
f 36/36/36 37/37/37 23/23/23 
f 38/38/38 23/23/23 37/37/37 
f 23/23/23 38/38/38 24/24/24 
f 39/39/39 24/24/24 38/38/38 
f 24/24/24 39/39/39 26/26/26 
f 40/40/40 26/26/26 39/39/39 
f 26/26/26 40/40/40 28/28/28 
f 41/41/41 28/28/28 40/40/40 
f 28/28/28 41/41/41 30/30/30 
f 42/42/42 30/30/30 41/41/41 
f 30/30/30 42/42/42 31/31/31 
f 43/43/43 31/31/31 42/42/42 
f 31/31/31 43/43/43 32/32/32 
f 6/6/6 32/32/32 43/43/43 
f 32/32/32 6/6/6 5/5/5 
f 20/20/20 21/21/21 29/29/29 
f 44/44/44 29/29/29 21/21/21 
f 29/29/29 44/44/44 27/27/27 
f 45/45/45 27/27/27 44/44/44 
f 27/27/27 45/45/45 25/25/25 
f 46/46/46 25/25/25 45/45/45 
f 25/25/25 46/46/46 22/22/22 
f 47/47/47 22/22/22 46/46/46 
f 22/22/22 47/47/47 48/48/48 
f 49/49/49 48/48/48 47/47/47 
f 48/48/48 49/49/49 50/50/50 
f 51/51/51 50/50/50 49/49/49 
f 50/50/50 51/51/51 52/52/52 
f 34/34/34 50/50/50 52/52/52 
f 50/50/50 34/34/34 36/36/36 
f 36/36/36 48/48/48 50/50/50 
f 48/48/48 36/36/36 23/23/23 
f 23/23/23 22/22/22 48/48/48 
f 53/1/53 52/2/52 51/3/51 
f 54/4/54 55/5/55 56/6/56 
f 55/5/55 54/4/54 57/7/57 
f 58/8/58 57/7/57 54/4/54 
f 57/7/57 58/8/58 59/9/59 
f 35/10/35 59/9/59 58/8/58 
f 59/9/59 35/10/35 34/11/34 
f 52/2/52 59/9/59 34/11/34 
f 59/9/59 52/2/52 60/12/60 
f 52/2/52 53/1/53 60/12/60 
f 61/13/61 60/12/60 53/1/53 
f 60/12/60 61/13/61 62/14/62 
f 63/15/63 62/14/62 61/13/61 
f 62/14/62 63/15/63 64/16/64 
f 65/17/65 64/16/64 63/15/63 
f 64/16/64 65/17/65 66/18/66 
f 67/19/67 66/18/66 65/17/65 
f 66/18/66 67/19/67 68/20/68 
f 69/21/69 68/20/68 67/19/67 
f 70/22/70 71/23/71 72/24/72 
f 72/24/72 73/25/73 70/22/70 
f 73/25/73 72/24/72 74/26/74 
f 74/26/74 75/27/75 73/25/73 
f 75/27/75 74/26/74 76/28/76 
f 76/28/76 77/29/77 75/27/75 
f 77/29/77 76/28/76 78/30/78 
f 78/30/78 68/20/68 77/29/77 
f 68/20/68 78/30/78 79/31/79 
f 79/31/79 66/18/66 68/20/68 
f 66/18/66 79/31/79 80/32/80 
f 80/32/80 64/16/64 66/18/66 
f 64/16/64 80/32/80 55/5/55 
f 55/5/55 62/14/62 64/16/64 
f 62/14/62 55/5/55 57/7/57 
f 57/7/57 60/12/60 62/14/62 
f 60/12/60 57/7/57 59/9/59 
f 81/33/81 11/34/11 10/35/10 
f 11/34/11 81/33/81 82/36/82 
f 83/37/83 82/36/82 81/33/81 
f 82/36/82 83/37/83 71/23/71 
f 84/38/84 71/23/71 83/37/83 
f 71/23/71 84/38/84 72/24/72 
f 85/39/85 72/24/72 84/38/84 
f 72/24/72 85/39/85 74/26/74 
f 86/40/86 74/26/74 85/39/85 
f 74/26/74 86/40/86 76/28/76 
f 87/41/87 76/28/76 86/40/86 
f 76/28/76 87/41/87 78/30/78 
f 88/42/88 78/30/78 87/41/87 
f 78/30/78 88/42/88 79/31/79 
f 89/43/89 79/31/79 88/42/88 
f 79/31/79 89/43/89 80/32/80 
f 56/6/56 80/32/80 89/43/89 
f 80/32/80 56/6/56 55/5/55 
f 68/20/68 69/21/69 77/29/77 
f 90/44/90 77/29/77 69/21/69 
f 77/29/77 90/44/90 75/27/75 
f 91/45/91 75/27/75 90/44/90 
f 75/27/75 91/45/91 73/25/73 
f 92/46/92 73/25/73 91/45/91 
f 73/25/73 92/46/92 70/22/70 
f 93/47/93 70/22/70 92/46/92 
f 70/22/70 93/47/93 94/48/94 
f 95/49/95 94/48/94 93/47/93 
f 94/48/94 95/49/95 96/50/96 
f 3/51/3 96/50/96 95/49/95 
f 96/50/96 3/51/3 2/52/2 
f 11/34/11 96/50/96 2/52/2 
f 96/50/96 11/34/11 82/36/82 
f 82/36/82 94/48/94 96/50/96 
f 94/48/94 82/36/82 71/23/71 
f 71/23/71 70/22/70 94/48/94 
f 97/53/97 49/54/49 47/55/47 
f 97/53/97 51/56/51 49/54/49 
f 97/53/97 53/57/53 51/56/51 
f 97/53/97 61/58/61 53/57/53 
f 97/53/97 63/59/63 61/58/61 
f 97/53/97 65/60/65 63/59/63 
f 97/53/97 67/61/67 65/60/65 
f 97/53/97 69/62/69 67/61/67 
f 97/53/97 90/63/90 69/62/69 
f 97/53/97 91/64/91 90/63/90 
f 97/53/97 92/65/92 91/64/91 
f 97/53/97 93/66/93 92/65/92 
f 97/53/97 95/67/95 93/66/93 
f 97/53/97 3/68/3 95/67/95 
f 97/53/97 1/69/1 3/68/3 
f 13/70/13 1/69/1 97/53/97 
f 97/53/97 15/71/15 13/70/13 
f 97/53/97 17/72/17 15/71/15 
f 97/53/97 19/73/19 17/72/17 
f 97/53/97 21/74/21 19/73/19 
f 97/53/97 44/75/44 21/74/21 
f 97/53/97 45/76/45 44/75/44 
f 97/53/97 46/77/46 45/76/45 
f 97/53/97 47/55/47 46/77/46 
f 98/53/98 40/73/40 39/72/39 
f 98/53/98 41/74/41 40/73/40 
f 98/53/98 42/75/42 41/74/41 
f 98/53/98 43/76/43 42/75/42 
f 98/53/98 6/77/6 43/76/43 
f 98/53/98 4/55/4 6/77/6 
f 98/53/98 8/54/8 4/55/4 
f 98/53/98 10/56/10 8/54/8 
f 98/53/98 81/57/81 10/56/10 
f 98/53/98 83/58/83 81/57/81 
f 98/53/98 84/59/84 83/58/83 
f 98/53/98 85/60/85 84/59/84 
f 98/53/98 86/61/86 85/60/85 
f 98/53/98 87/62/87 86/61/86 
f 98/53/98 88/63/88 87/62/87 
f 98/53/98 89/64/89 88/63/88 
f 98/53/98 56/65/56 89/64/89 
f 98/53/98 54/66/54 56/65/56 
f 98/53/98 58/67/58 54/66/54 
f 98/53/98 35/68/35 58/67/58 
f 98/53/98 33/69/33 35/68/35 
f 98/53/98 37/70/37 33/69/33 
f 98/53/98 38/71/38 37/70/37 
f 98/53/98 39/72/39 38/71/38 
# 0 polygons - 192 triangles

